<?xml version="1.0" encoding="utf-8"?>
<!-- Generator: Adobe Illustrator 13.0.1, SVG Export Plug-In . SVG Version: 6.00 Build 14948)  -->
<!DOCTYPE svg PUBLIC "-//W3C//DTD SVG 1.1 Tiny//EN" "http://www.w3.org/Graphics/SVG/1.1/DTD/svg11-tiny.dtd">
<svg version="1.1" baseProfile="tiny" id="Layer_1" xmlns="http://www.w3.org/2000/svg" xmlns:xlink="http://www.w3.org/1999/xlink"
	 x="0px" y="0px" width="224.049px" height="436.938px" viewBox="0 0 224.049 436.938" xml:space="preserve">
<polygon fill="#0B75BC" points="39.258,311.678 220.514,117.695 224.049,121.229 48.45,320.871 "/>
<polygon fill="#0B75BC" points="13.802,286.223 213.441,110.624 216.977,114.159 22.994,295.414 "/>
<g>
	<g>
		<path fill="#E92F30" d="M87.018,185.953C98.951,113.368,21.445,121.94,82.418,0C-21.358,128.558,71.05,123.53,87.018,185.953z"/>
		<path fill="#E92F30" d="M104.678,197.569c26.959-87.325-30.271-69.011-4.175-146.75
			C101.877,140.095,178.18,116.35,104.678,197.569z"/>
	</g>
	<path fill="#0B75BC" d="M194.313,165.634c2.688,4.842,4.531,10.285,4.531,16.13c0,24.779-27.475,45.817-65.641,53.345L94.81,278.76
		c2.409,0.199,4.867,0.306,7.38,0.306c41.194,0,68.22-27.649,84.071-52.108c11.422-10.446,18.118-23.121,18.118-36.788
		c0-9.295-3.101-18.13-8.673-26.12L194.313,165.634z"/>
	<path fill="#0B75BC" d="M5.538,181.765c0-21.282,26.161-38.446,26.161-38.446C12.171,155.104,0,171.736,0,190.169
		c0,13.667,6.697,26.342,18.119,36.788c5.817,8.976,13.146,18.376,22.12,26.687l23.094-20.312
		C29.303,224.616,5.538,204.81,5.538,181.765z"/>
</g>
<path fill="#0B75BC" d="M94.789,237.908l-33.236,31.056c1.795,0.954,3.639,1.848,5.523,2.688l31.418-33.625
	C97.253,237.999,96.017,237.963,94.789,237.908z"/>
<g>
	<g>
		<path fill="#676767" d="M91.254,326.352c2.048,0.158,11.678,1.146,14.212,4.573c2.538,3.42,2.152,8.494,1.015,9.633
			c-1.146,1.146-4.311,0.384-6.475-1.898c-2.153-2.281-7.479-6.72-9.259-8.499C88.973,328.385,89.612,326.229,91.254,326.352z"/>
	</g>
	<g>
		<path fill="#676767" d="M172.9,326.352c2.042,0.158,11.672,1.146,14.203,4.573c2.543,3.42,2.156,8.494,1.022,9.633
			c-1.143,1.146-4.31,0.384-6.472-1.898c-2.159-2.281-7.485-6.72-9.264-8.499C170.618,328.385,171.257,326.229,172.9,326.352z"/>
	</g>
	<g>
		<path fill="#676767" d="M42.811,378.381c-2.558-1.893-0.303-2.399,0.89-2.399c1.2,0,4.18-1.34,9.556,3.292
			c5.368,4.623,14.115,14.763,35.308,24.161c10.679,4.729,16.09,5.485,19.077,6.232c2.982,0.741,1.793,2.385,0.144,2.987
			c-1.641,0.593-20.256,5.476-26.914,1.195C68.341,405.79,56.093,388.222,42.811,378.381z"/>
	</g>
	<g>
		<path fill="#676767" d="M96.387,351.914c3.184,0,6.231,2.004,8.677,3.791c2.452,1.78,2.895,2.443,1.338,6.448
			c-1.562,4.007-2.445,10.956-2.669,20.525c-0.225,9.571,0,5.53-1.114,11.76c-1.107,6.236-1.338,9.129-3.118,9.129
			c-1.773,0-3.56-6.232-3.56-14.244c0-8.007,1.556-22.72-0.218-27.619c-1.779-4.892-4.676-5.779-4.676-8.003
			C91.047,351.474,94.161,351.914,96.387,351.914z"/>
	</g>
	<g>
		<path fill="#676767" d="M24.558,390.225c-6.367-6.891-9.044-15.315-9.044-25.075c0-7.81,2.36-14.493,6.987-20.343
			c5.656-7.501,16.855-12.739,27.745-12.739c21.265,0,32.056,15.404,32.056,32.054c0,9.554-2.155,16.028-6.475,21.886
			c-6.781,8.836-17.262,13.354-27.539,13.354C37.814,399.36,30.108,396.078,24.558,390.225z M62.784,390.424
			c6.262-4.827,8.424-13.045,8.424-22.396c0-11.514-3.804-21.783-11.716-27.127c-3.597-2.36-7.809-3.699-13.052-3.699
			c-3.287,0-6.161,0.825-8.626,2.156c-7.304,4.008-10.892,13.052-10.892,23.428c0,11.198,4.208,22.398,13.052,27.845
			c3.595,2.161,7.286,3.084,12.222,3.084C56.304,393.714,60.213,392.58,62.784,390.424z"/>
	</g>
	<path fill="#676767" d="M149.103,375.173c15.768,0,10.564-0.654,16.11,0.51c5.552,1.169,4.667-3.217,4.667-3.217
		c-1.45-2.333-7.395-6.815-12.656-5.063c-5.241,1.754-33.686,6.72-35.18,4.933c-1.491-1.781,12.688-30.205,14.42-34.104
		c1.734-3.894-3.82-3.977-9.442-7.009c-5.623-3.028-5.716-1.107-3.83,2.518c1.885,3.63,2.828,5.709,0.455,15.192
		c-2.414,9.628-4.576,13.474-7.119,19.454c-3.197,7.508-1.919,7.792,1.726,9.515C121.898,379.634,133.335,375.173,149.103,375.173z"
		/>
	<path fill="#676767" d="M142.235,334.08c4.143,1.245,11.232,3.095,9.688,8.139c-1.55,5.037-2.71,6.589-2.71,12.398
		c0,5.822-1.166,34.078-3.103,45.314c-0.879,5.094-4.26,5.814-4.26-4.261c0-10.081,0-44.54-0.396-50.739
		C141.066,338.729,138.359,332.92,142.235,334.08z"/>
	<path fill="#676767" d="M181.25,353.297c1.972,0.949,7.682,3.838,7.315,7.068c-0.369,3.229-1.277,2.865-1.4,7.436
		c-0.12,4.573,0.056,19.686-1.222,29.74c-1.28,10.057-3.653,16.295-8.938,23.607c-5.279,7.313-17.47,13.488-32.42,15.682
		c-2.18,0.323-3.981-0.081-2.03-1.218c1.951-1.138,33.642-9.832,34.857-40.873c0.34-8.475,1.632-25.758-0.896-38.844
		C175.897,352.664,174.854,350.209,181.25,353.297z"/>
</g>
</svg>
